HIERARCHY
ROOT Hips
{
	OFFSET 0.000000 83.214638 0.000000
	CHANNELS 6 Xposition Yposition Zposition Xrotation Yrotation Zrotation
	JOINT Pelvis
	{
		OFFSET 0.000000 0.000000 0.000000
		CHANNELS 3 Xrotation Yrotation Zrotation
		JOINT LeftUpLeg
		{
			OFFSET 8.479700 -4.795502 -0.379100
			CHANNELS 3 Xrotation Yrotation Zrotation
			JOINT LeftLeg
			{
				OFFSET 0.024144 -32.555107 0.112900
				CHANNELS 3 Xrotation Yrotation Zrotation
				JOINT LeftFoot
				{
					OFFSET -0.024144 -32.638630 -3.012600
					CHANNELS 3 Xrotation Yrotation Zrotation
					JOINT LeftToeBase
					{
						OFFSET 0.970200 -13.225400 11.864200
						CHANNELS 3 Xrotation Yrotation Zrotation
						End Site
						{
							OFFSET 0.000000 12.319262 0.000000
						}
					}
					JOINT LFootTongue
					{
						OFFSET 1.142400 -1.059800 6.665200
						CHANNELS 3 Xrotation Yrotation Zrotation
						End Site
						{
							OFFSET 0.000000 12.319262 0.000000
						}
					}
				}
				JOINT LeftPantLeg
				{
					OFFSET 0.918482 -16.533964 -2.284700
					CHANNELS 3 Xrotation Yrotation Zrotation
					End Site
					{
						OFFSET 0.350399 24.744368 0.000000
					}
				}
			}
		}
		JOINT RightUpLeg
		{
			OFFSET -8.479700 -4.795502 -0.379100
			CHANNELS 3 Xrotation Yrotation Zrotation
			JOINT RightLeg
			{
				OFFSET -0.023144 -32.555092 0.112900
				CHANNELS 3 Xrotation Yrotation Zrotation
				JOINT RightFoot
				{
					OFFSET 0.023144 -32.638641 -3.012700
					CHANNELS 3 Xrotation Yrotation Zrotation
					JOINT RightToeBase
					{
						OFFSET -0.970200 -13.225400 11.864200
						CHANNELS 3 Xrotation Yrotation Zrotation
						End Site
						{
							OFFSET 0.000000 12.319244 0.000000
						}
					}
					JOINT RFootTongue
					{
						OFFSET -1.142200 -1.059800 6.665200
						CHANNELS 3 Xrotation Yrotation Zrotation
						End Site
						{
							OFFSET 0.000000 12.319243 0.000000
						}
					}
				}
				JOINT RightPantLeg
				{
					OFFSET -0.919482 -16.533978 -2.284800
					CHANNELS 3 Xrotation Yrotation Zrotation
					End Site
					{
						OFFSET -0.350400 24.744419 0.000000
					}
				}
			}
		}
	}
	JOINT Spine
	{
		OFFSET 0.000000 7.722000 1.166200
		CHANNELS 3 Xrotation Yrotation Zrotation
		JOINT Spine1
		{
			OFFSET 0.000000 12.024101 0.248800
			CHANNELS 3 Xrotation Yrotation Zrotation
			JOINT Spine2
			{
				OFFSET 0.000000 11.502998 -0.491200
				CHANNELS 3 Xrotation Yrotation Zrotation
				JOINT Neck
				{
					OFFSET 0.000000 18.430702 -3.123100
					CHANNELS 3 Xrotation Yrotation Zrotation
					JOINT Head
					{
						OFFSET 0.000000 9.051102 1.034000
						CHANNELS 3 Xrotation Yrotation Zrotation
						JOINT HairB
						{
							OFFSET 0.208400 24.786102 24.822300
							CHANNELS 3 Xrotation Yrotation Zrotation
							End Site
							{
								OFFSET 0.000000 32.263779 0.000000
							}
						}
						JOINT HairA
						{
							OFFSET -7.081100 24.428299 23.196600
							CHANNELS 3 Xrotation Yrotation Zrotation
							End Site
							{
								OFFSET 0.000000 32.263779 0.000000
							}
						}
						JOINT Hat
						{
							OFFSET 16.728800 15.048294 -15.439601
							CHANNELS 3 Xrotation Yrotation Zrotation
							End Site
							{
								OFFSET 0.000000 32.263779 0.000000
							}
						}
					}
				}
				JOINT LeftShoulder
				{
					OFFSET 6.197800 13.665199 -4.064700
					CHANNELS 3 Xrotation Yrotation Zrotation
					JOINT LeftArm
					{
						OFFSET 7.778100 -0.187103 -1.709300
						CHANNELS 3 Xrotation Yrotation Zrotation
						JOINT LeftForeArm
						{
							OFFSET 22.049376 0.000000 0.000000
							CHANNELS 3 Xrotation Yrotation Zrotation
							JOINT LeftHand
							{
								OFFSET 23.009392 0.000000 0.000000
								CHANNELS 3 Xrotation Yrotation Zrotation
								JOINT LeftHandThumb1
								{
									OFFSET 3.507191 -2.063065 3.133727
									CHANNELS 3 Xrotation Yrotation Zrotation
									JOINT LeftHandThumb2
									{
										OFFSET 3.101337 -1.790558 1.790558
										CHANNELS 3 Xrotation Yrotation Zrotation
										JOINT LeftHandThumb3
										{
											OFFSET 3.058640 -1.765907 1.765906
											CHANNELS 3 Xrotation Yrotation Zrotation
											End Site
											{
												OFFSET -0.415260 3.926476 -0.049563
											}
										}
									}
								}
								JOINT LeftHandIndex1
								{
									OFFSET 11.334419 -0.901459 3.706815
									CHANNELS 3 Xrotation Yrotation Zrotation
									JOINT LeftHandIndex2
									{
										OFFSET 3.283112 0.000000 0.000000
										CHANNELS 3 Xrotation Yrotation Zrotation
										JOINT LeftHandIndex3
										{
											OFFSET 3.323853 0.000000 0.000000
											CHANNELS 3 Xrotation Yrotation Zrotation
											End Site
											{
												OFFSET -1.135597 3.097809 0.402452
											}
										}
									}
								}
								JOINT LeftHandMiddle1
								{
									OFFSET 11.335861 0.000000 0.000000
									CHANNELS 3 Xrotation Yrotation Zrotation
									JOINT LeftHandMiddle2
									{
										OFFSET 3.410492 0.000000 0.000000
										CHANNELS 3 Xrotation Yrotation Zrotation
										JOINT LeftHandMiddle3
										{
											OFFSET 3.312172 0.000000 0.000000
											CHANNELS 3 Xrotation Yrotation Zrotation
											End Site
											{
												OFFSET -1.150200 3.080154 0.400270
											}
										}
									}
								}
								JOINT LeftHandRing1
								{
									OFFSET 11.514786 -0.013176 -3.003090
									CHANNELS 3 Xrotation Yrotation Zrotation
									JOINT LeftHandRing2
									{
										OFFSET 3.053307 0.000000 0.000000
										CHANNELS 3 Xrotation Yrotation Zrotation
										JOINT LeftHandRing3
										{
											OFFSET 3.295807 0.000000 0.000000
											CHANNELS 3 Xrotation Yrotation Zrotation
											End Site
											{
												OFFSET -1.281006 3.013344 0.375733
											}
										}
									}
								}
								JOINT LeftHandPinky1
								{
									OFFSET 10.518692 -0.960396 -5.730441
									CHANNELS 3 Xrotation Yrotation Zrotation
									JOINT LeftHandPinky2
									{
										OFFSET 2.861649 0.000000 0.000000
										CHANNELS 3 Xrotation Yrotation Zrotation
										JOINT LeftHandPinky3
										{
											OFFSET 2.863380 0.000000 0.000000
											CHANNELS 3 Xrotation Yrotation Zrotation
											End Site
											{
												OFFSET -0.843597 2.711159 0.369971
											}
										}
									}
								}
							}
							JOINT LSleeve
							{
								OFFSET 6.676277 -0.344902 -1.011730
								CHANNELS 3 Xrotation Yrotation Zrotation
								End Site
								{
									OFFSET 0.000000 14.885353 0.000000
								}
							}
						}
					}
				}
				JOINT RightShoulder
				{
					OFFSET -6.197800 13.665199 -4.064700
					CHANNELS 3 Xrotation Yrotation Zrotation
					JOINT RightArm
					{
						OFFSET -7.778100 -0.187103 -1.709300
						CHANNELS 3 Xrotation Yrotation Zrotation
						JOINT RightForeArm
						{
							OFFSET -22.049376 0.000000 0.000000
							CHANNELS 3 Xrotation Yrotation Zrotation
							JOINT RightHand
							{
								OFFSET -23.009392 0.000000 0.000000
								CHANNELS 3 Xrotation Yrotation Zrotation
								JOINT RightHandThumb1
								{
									OFFSET -3.507191 -2.063065 3.133727
									CHANNELS 3 Xrotation Yrotation Zrotation
									JOINT RightHandThumb2
									{
										OFFSET -3.101337 -1.790558 1.790558
										CHANNELS 3 Xrotation Yrotation Zrotation
										JOINT RightHandThumb3
										{
											OFFSET -3.058640 -1.765907 1.765906
											CHANNELS 3 Xrotation Yrotation Zrotation
											End Site
											{
												OFFSET 0.415260 3.926476 -0.049563
											}
										}
									}
								}
								JOINT RightHandIndex1
								{
									OFFSET -11.334419 -0.901459 3.706815
									CHANNELS 3 Xrotation Yrotation Zrotation
									JOINT RightHandIndex2
									{
										OFFSET -3.283112 0.000000 0.000000
										CHANNELS 3 Xrotation Yrotation Zrotation
										JOINT RightHandIndex3
										{
											OFFSET -3.323853 0.000000 0.000000
											CHANNELS 3 Xrotation Yrotation Zrotation
											End Site
											{
												OFFSET 1.135597 3.097809 0.402452
											}
										}
									}
								}
								JOINT RightHandMiddle1
								{
									OFFSET -11.335861 0.000000 0.000000
									CHANNELS 3 Xrotation Yrotation Zrotation
									JOINT RightHandMiddle2
									{
										OFFSET -3.410492 0.000000 0.000000
										CHANNELS 3 Xrotation Yrotation Zrotation
										JOINT RightHandMiddle3
										{
											OFFSET -3.312172 0.000000 0.000000
											CHANNELS 3 Xrotation Yrotation Zrotation
											End Site
											{
												OFFSET 1.150200 3.080154 0.400270
											}
										}
									}
								}
								JOINT RightHandRing1
								{
									OFFSET -11.514786 -0.013176 -3.003090
									CHANNELS 3 Xrotation Yrotation Zrotation
									JOINT RightHandRing2
									{
										OFFSET -3.053307 0.000000 0.000000
										CHANNELS 3 Xrotation Yrotation Zrotation
										JOINT RightHandRing3
										{
											OFFSET -3.295807 0.000000 0.000000
											CHANNELS 3 Xrotation Yrotation Zrotation
											End Site
											{
												OFFSET 1.281006 3.013344 0.375733
											}
										}
									}
								}
								JOINT RightHandPinky1
								{
									OFFSET -10.518692 -0.960396 -5.730441
									CHANNELS 3 Xrotation Yrotation Zrotation
									JOINT RightHandPinky2
									{
										OFFSET -2.861649 0.000000 0.000000
										CHANNELS 3 Xrotation Yrotation Zrotation
										JOINT RightHandPinky3
										{
											OFFSET -2.863380 0.000000 0.000000
											CHANNELS 3 Xrotation Yrotation Zrotation
											End Site
											{
												OFFSET 0.843597 2.711159 0.369971
											}
										}
									}
								}
							}
							JOINT RSleeve
							{
								OFFSET -6.676277 -0.344902 -1.011730
								CHANNELS 3 Xrotation Yrotation Zrotation
								End Site
								{
									OFFSET 0.000000 14.885353 0.000000
								}
							}
						}
					}
				}
				JOINT Backpack
				{
					OFFSET 0.000000 -2.471497 36.677502
					CHANNELS 3 Xrotation Yrotation Zrotation
					End Site
					{
						OFFSET 0.000000 20.427315 0.000000
					}
				}
				JOINT Hood
				{
					OFFSET 0.000000 18.754097 -10.431000
					CHANNELS 3 Xrotation Yrotation Zrotation
					JOINT Hood1
					{
						OFFSET 0.000000 -5.011002 -7.685901
						CHANNELS 3 Xrotation Yrotation Zrotation
						End Site
						{
							OFFSET 0.000000 9.175140 0.000000
						}
					}
				}
				JOINT LHoodieString
				{
					OFFSET 5.250500 16.397697 3.089900
					CHANNELS 3 Xrotation Yrotation Zrotation
					JOINT LHoodieString1
					{
						OFFSET 0.257700 -6.364304 3.694600
						CHANNELS 3 Xrotation Yrotation Zrotation
						JOINT LHoodieString2
						{
							OFFSET 0.000000 -9.643799 2.679100
							CHANNELS 3 Xrotation Yrotation Zrotation
							End Site
							{
								OFFSET 0.000000 10.009018 0.000000
							}
						}
					}
				}
				JOINT RHoodieString
				{
					OFFSET -5.250500 16.397697 3.089900
					CHANNELS 3 Xrotation Yrotation Zrotation
					JOINT RHoodieString1
					{
						OFFSET -0.257700 -6.364304 3.694600
						CHANNELS 3 Xrotation Yrotation Zrotation
						JOINT RHoodieString2
						{
							OFFSET 0.000000 -9.643799 2.679100
							CHANNELS 3 Xrotation Yrotation Zrotation
							End Site
							{
								OFFSET 0.000000 10.009018 0.000000
							}
						}
					}
				}
			}
			JOINT LBackpack_Strap
			{
				OFFSET 15.223200 -7.719803 -6.610900
				CHANNELS 3 Xrotation Yrotation Zrotation
				End Site
				{
					OFFSET 0.000000 16.040596 0.000000
				}
			}
			JOINT RBackpack_Strap
			{
				OFFSET -15.223000 -7.719803 -6.610900
				CHANNELS 3 Xrotation Yrotation Zrotation
				End Site
				{
					OFFSET 0.000000 16.040596 0.000000
				}
			}
		}
	}
	JOINT BoyFacialAnim_Joint
	{
		OFFSET 1.000000 -82.208099 -1.550900
		CHANNELS 3 Xrotation Yrotation Zrotation
		End Site
		{
			OFFSET 0.000000 30.012791 0.000000
		}
	}
}
MOTION
Frames: 4
Frame Time: 0.033333
-8.335930 83.926315 25.494410 5.547556 -9.473559 -754.460893 0.000001 -0.000001 -0.000001 -35.841920 18.864363 27.687852 19.523722 10.745944 5.653609 -14.965501 27.831050 9.102035 0.000000 0.000000 -0.000000 0.000000 0.000000 -0.000000 -0.000000 0.000002 0.000001 -38.411188 10.396322 -37.358915 20.291377 -10.465386 -1.871843 15.389625 -0.009964 8.752739 0.000001 0.000001 0.000000 0.000001 0.000001 0.000000 -0.000000 0.000003 0.000001 14.004062 -2.134061 11.619805 6.424419 -0.212580 0.694224 6.421028 -0.336367 0.683299 -0.421987 3.276420 0.927719 -23.772255 7.124549 24.652716 0.000000 0.000000 -0.000000 0.000000 0.000000 -0.000000 0.000000 0.000000 -0.000000 0.350467 -2.901830 36.915219 -120.909771 -45.557912 -79.136778 0.000002 -9.091329 -0.000013 5.499203 -13.502072 15.938060 7.667699 3.743933 9.578463 4.699300 17.311005 1.437828 -0.000003 0.000001 -0.000004 1.536166 -5.644006 18.648341 0.001997 0.166190 -1.377379 0.000000 -0.000001 -0.000002 -0.305027 0.389540 14.043070 0.025768 0.596330 -4.947734 -0.000000 -0.000000 0.000002 -1.297743 7.971546 9.268641 0.127288 1.320471 -11.011547 0.000001 -0.000006 0.000002 -1.664314 18.678370 6.299764 0.291367 -2.070163 -17.194264 -0.000001 0.000004 -0.000003 0.000000 0.000000 0.000000 -0.061543 0.537721 -15.446193 43.929960 -24.491643 44.566233 0.000006 9.020588 -0.000011 21.807541 -1.957184 5.043107 -2.952579 -4.163066 -18.871645 5.177106 -14.588980 -0.641883 0.000001 0.000001 0.000001 3.233437 7.111484 -32.215803 -0.000015 0.000000 0.000011 -0.000001 0.000000 0.000002 1.356170 4.390310 -25.891364 0.000556 0.086862 0.000012 -0.000001 -0.000000 0.000003 -0.097200 0.922312 -19.548828 0.000186 0.054267 -0.000079 -0.000002 -0.000003 0.000005 -0.794314 -2.093272 -15.072023 0.000058 -0.027787 0.227998 -0.000003 -0.000003 -0.000002 0.000002 0.000001 -0.000000 0.000003 -0.000001 -0.000001 0.000003 -0.000001 -0.000001 0.000003 -0.000001 -0.000001 0.000003 -0.000001 -0.000001 0.000003 -0.000001 -0.000001 0.000002 0.000001 0.000000 0.000003 -0.000001 -0.000001 0.000003 -0.000001 -0.000001 0.000002 0.000001 0.000000 0.000000 -0.000001 -0.000000 0.000000 -0.000001 -0.000000 0.000001 -0.000001 -0.000001 
-9.321003 83.185455 25.783016 4.746336 -9.657856 -753.245447 -0.000000 0.000000 0.000005 -35.633107 15.482184 26.722096 25.434438 10.954599 5.806209 -16.706911 29.242939 7.963160 -0.000000 0.000000 0.000000 -0.000000 0.000000 -0.000000 0.000000 0.000000 0.000001 -38.702123 11.337788 -34.658367 21.783037 -8.179376 -0.648418 17.036882 1.171460 10.576604 0.000000 -0.000000 0.000001 0.000000 -0.000000 0.000001 -0.000001 -0.000001 -0.000001 14.645309 -2.020167 11.429213 6.382682 -0.208972 0.454608 6.378452 -0.334837 0.445280 -0.419347 3.102138 0.878266 -23.573307 6.342069 24.300835 -0.000001 -0.000000 -0.000000 -0.000001 -0.000000 -0.000000 -0.000001 -0.000000 -0.000000 0.142253 -2.419174 36.930314 -120.540107 -43.769611 -79.184343 -0.000003 -9.044265 -0.000006 6.666904 -14.195540 16.313253 7.667694 3.743935 9.578461 4.699303 17.311005 1.437834 0.000002 -0.000003 -0.000000 1.728618 -5.820143 20.575040 0.000457 0.079905 -0.662206 0.000003 -0.000002 -0.000002 -0.313811 0.157034 15.885960 0.018171 0.501070 -4.155795 -0.000003 -0.000001 0.000000 -1.550750 7.703226 11.123960 0.109702 1.226727 -10.220876 -0.000001 0.000001 -0.000000 -2.301925 18.381678 8.305934 0.266336 -2.152779 -16.480056 -0.000001 0.000002 -0.000002 0.000001 0.000001 0.000001 -0.239136 -0.540998 -13.731281 50.021386 -28.859708 43.264399 -0.000008 14.865915 0.000004 24.276461 -3.996818 7.397606 -2.952576 -4.163062 -18.871644 5.177107 -14.588978 -0.641885 -0.000000 -0.000002 0.000001 2.466007 6.656002 -25.819524 0.000003 -0.000004 0.000013 0.000000 -0.000000 0.000002 0.919951 3.767857 -19.764805 -0.000004 -0.008992 0.073817 0.000003 0.000004 -0.000001 -0.155113 0.165086 -13.452750 0.001293 -0.134543 1.104012 0.000000 0.000004 0.000001 -0.516851 -2.936566 -8.755541 0.007553 -0.324493 2.663738 -0.000000 -0.000004 0.000001 -0.000001 -0.000001 -0.000003 -0.000003 0.000001 -0.000000 -0.000003 0.000001 -0.000000 -0.000003 0.000001 -0.000000 -0.000003 0.000001 -0.000000 -0.000003 0.000001 0.000001 -0.000005 -0.000002 0.000001 -0.000003 0.000001 -0.000000 -0.000003 0.000001 0.000001 -0.000005 -0.000002 0.000001 -0.000001 0.000002 0.000002 -0.000001 0.000002 0.000002 -0.000000 0.000000 0.000005 
-10.726696 82.898254 26.325178 4.286485 -8.557573 -750.675329 -0.000000 -0.000000 -0.000001 -34.210232 14.746445 25.107724 27.814315 10.754017 5.734970 -16.812678 29.472659 6.396047 -0.000000 -0.000000 -0.000000 -0.000000 -0.000000 -0.000000 0.000000 -0.000000 0.000000 -42.731641 8.118301 -30.742866 30.704497 -3.546732 0.430812 17.359658 1.427153 13.050967 0.000000 0.000000 -0.000006 0.000000 0.000000 -0.000006 -0.000001 0.000000 0.000002 15.167521 -2.027946 10.458982 6.219271 -0.197346 0.262984 6.214935 -0.316153 0.255434 -0.414559 2.760954 0.781509 -22.381106 5.105663 23.361325 0.000002 0.000000 0.000001 0.000002 0.000000 0.000001 0.000002 0.000000 0.000001 0.165204 -2.433930 35.351410 -117.280386 -39.820406 -81.607332 -0.000009 -13.004095 -0.000001 11.153288 -13.809892 17.098470 7.667690 3.743931 9.578460 4.699306 17.311003 1.437830 0.000002 -0.000002 -0.000002 1.393388 -5.505295 17.178552 0.000002 0.000009 -0.000028 -0.000003 -0.000001 -0.000002 -0.293276 0.566778 12.636443 0.011955 0.406396 -3.369629 0.000002 0.000000 0.000000 -1.098682 8.170817 7.850950 0.088094 1.100142 -9.156120 -0.000001 0.000001 -0.000004 -1.169746 18.890452 4.763977 0.215998 -2.331595 -14.942596 -0.000002 -0.000005 -0.000001 -0.000002 0.000002 0.000001 -0.801372 -3.222321 -13.858308 54.286443 -27.134269 44.863411 -0.000015 18.469745 0.000017 25.360274 -3.735599 10.543909 -2.952573 -4.163058 -18.871644 5.177107 -14.588980 -0.641883 0.000001 -0.000001 -0.000002 1.559869 5.947435 -17.578332 0.000001 0.000000 0.000012 -0.000001 -0.000003 0.000007 0.459745 2.901714 -11.865957 0.000862 -0.109429 0.897952 -0.000002 0.000000 0.000003 -0.110438 -0.814353 -5.580412 0.007584 -0.325466 2.671609 -0.000000 -0.000001 0.000002 -0.023694 -3.971416 -0.584108 0.027004 -0.613258 5.038727 0.000002 -0.000002 0.000005 -0.000003 0.000001 0.000002 -0.000001 -0.000001 -0.000001 -0.000001 -0.000001 -0.000001 -0.000001 -0.000001 -0.000001 -0.000001 -0.000001 -0.000001 -0.000001 -0.000001 -0.000001 -0.000003 0.000000 0.000001 -0.000001 -0.000001 -0.000001 -0.000001 -0.000001 -0.000001 -0.000003 0.000000 0.000001 -0.000001 0.000001 0.000002 -0.000001 0.000001 0.000002 -0.000000 -0.000000 -0.000001 
-12.287544 82.874481 27.109829 4.309743 -6.711375 -747.327224 -0.000000 0.000000 0.000001 -31.606096 14.807522 22.436195 27.844181 10.639566 5.840069 -16.134888 29.766695 4.571677 0.000000 -0.000000 0.000000 0.000000 -0.000000 0.000000 -0.000000 0.000001 0.000001 -44.900871 1.515272 -26.514195 38.065474 0.598967 0.676637 17.525953 1.789530 17.000648 0.000003 -0.000001 -0.000001 0.000003 -0.000001 -0.000001 0.000000 -0.000003 -0.000000 14.671158 -2.128635 8.583958 6.195952 -0.173543 0.463849 6.193424 -0.270763 0.456072 -0.409600 2.352592 0.665780 -20.483114 4.054352 21.436013 -0.000000 -0.000000 0.000000 -0.000000 -0.000000 0.000000 -0.000000 -0.000000 0.000000 0.573119 -3.413242 31.744517 -111.552610 -37.138549 -86.168806 -0.000002 -16.446008 0.000003 15.186034 -13.419431 17.169603 7.667696 3.743932 9.578464 4.699308 17.311007 1.437830 -0.000001 -0.000003 -0.000002 0.775249 -4.810067 10.310796 -0.000005 -0.000015 -0.000020 -0.000002 0.000001 -0.000003 -0.180762 1.389665 6.053216 0.008711 0.347071 -2.877236 -0.000002 -0.000000 -0.000003 -0.102509 9.035537 1.199132 0.066527 0.956829 -7.954831 0.000001 0.000001 0.000001 1.223908 19.712093 -2.468997 0.151487 -2.593475 -12.710455 -0.000002 0.000001 0.000003 0.000001 -0.000000 -0.000001 -1.891341 -7.092917 -16.814362 54.617891 -18.827196 48.544108 -0.000004 18.067032 0.000004 27.007014 -1.642098 12.633886 -2.952578 -4.163059 -18.871642 5.177111 -14.588980 -0.641882 -0.000001 -0.000002 -0.000004 0.568215 4.867774 -7.085309 -0.000001 0.000006 0.000004 -0.000003 -0.000001 0.000002 0.052739 1.717901 -1.794497 0.003596 -0.223487 1.834135 0.000001 0.000000 0.000003 0.140880 -2.040579 4.480902 0.025374 -0.594734 4.886315 -0.000003 -0.000000 0.000002 0.813046 -5.173347 9.882152 0.061397 -0.923918 7.604277 -0.000001 0.000002 -0.000003 -0.000002 0.000001 0.000002 0.000001 -0.000002 -0.000000 0.000001 -0.000002 -0.000000 0.000001 -0.000002 -0.000000 0.000001 -0.000002 -0.000000 0.000001 -0.000002 -0.000001 -0.000000 -0.000001 -0.000002 0.000001 -0.000002 -0.000000 0.000001 -0.000002 -0.000001 -0.000000 -0.000001 -0.000002 -0.000000 0.000001 0.000001 -0.000000 0.000001 0.000001 -0.000000 0.000000 0.000001 
